<!--?xml version="1.0" standalone="no"?-->
              <svg id="sw-js-blob-svg" viewBox="0 0 100 100" xmlns="http://www.w3.org/2000/svg" version="1.1">
                    <defs> 
                        <linearGradient id="sw-gradient" x1="0" x2="1" y1="1" y2="0">
                            <stop id="stop1" stop-color="rgba(248, 117, 55, 1)" offset="0%"></stop>
                            <stop id="stop2" stop-color="rgba(251, 168, 31, 1)" offset="100%"></stop>
                        </linearGradient>
                    </defs>
                <path fill="url(#sw-gradient)" d="M22.5,-34.5C29.3,-30.7,35,-24.6,36.5,-17.7C38,-10.8,35.4,-3.1,34.8,5.4C34.2,13.9,35.7,23,32,28.4C28.4,33.9,19.7,35.6,11.3,37.9C2.8,40.2,-5.3,43,-11.8,40.8C-18.3,38.6,-23.1,31.4,-28.7,24.9C-34.4,18.4,-40.9,12.6,-41.7,6.1C-42.6,-0.4,-37.7,-7.7,-33.1,-14C-28.5,-20.2,-24.1,-25.5,-18.6,-29.9C-13.2,-34.3,-6.6,-37.8,0.6,-38.8C7.9,-39.8,15.7,-38.3,22.5,-34.5Z" width="100%" height="100%" transform="translate(50 50)" stroke-width="0" style="transition: all 0.3s ease 0s;"></path>
              </svg>